<?xml version="1.0" encoding="UTF-8"?>
<svg width="128" height="128" viewBox="0 0 128 128" fill="none" xmlns="http://www.w3.org/2000/svg">
  <rect width="128" height="128" rx="28" fill="#0A0F15"/>
  <g transform="translate(20 19) scale(0.57)">
<path
       style="fill:#ffffff"
       d="M 35.243621,103.28622 35.039901,102.33553 78.228616,5.5683564 105.66296,65.326327 88.686261,72.931887 78.771871,50.794275 65.869582,82.303024 c 0,0 -17.791578,9.235322 -30.625961,20.983196 z"
       id="path1" />
<path
       style="fill:#ffffff"
       d="m 113.26852,83.117905 -15.822283,10.389738 23.292023,50.386837 0.20372,0.40744 21.59436,-0.47535 z"
       id="path2" />
<path
       id="path3"
       style="fill:#ffffff"
       d="m 136.35547,65.212891 c -0.0953,0.0077 -0.19377,0.01501 -0.29492,0.02344 -6.51905,0.543255 -19.48828,3.191406 -19.48828,3.191406 0,0 3.77179,-0.612942 3.94726,-0.59375 h 0.002 0.002 l 0.002,0.002 v 0.002 h -0.002 l -0.002,0.002 c -0.0875,0.03921 -1.07226,0.236529 -3.74609,0.724609 -6.79972,1.241218 -15.82905,4.197706 -19.249999,5.359375 -0.414162,0.150155 -0.856415,0.310207 -1.326172,0.480469 -15.550654,5.636264 -24.853516,11.273437 -24.853516,11.273437 0,0 12.834835,-6.654865 0.06836,0 -12.766474,6.654865 -26.921874,17.234373 -26.921874,17.234373 -10e-7,0 7.731553,-4.705959 0.04883,0.0957 -6.400177,4.00011 -16.400338,15.06361 -19.560547,18.64649 -0.244204,0.34189 -0.525293,0.73469 -0.847657,1.18359 -5.137854,7.15458 -12.484374,20.98438 -12.484374,20.98438 l -0.265626,0.66211 25.869141,-0.40626 h 0.002 c 0.04483,-0.0416 0.0908,-0.0634 0.134766,-0.0664 0.01045,-7.1e-4 0.02131,-0.001 0.03125,0 1.183791,-2.46487 2.478101,-4.39644 3.453125,-5.6875 0.0027,-0.005 0.0052,-0.0102 0.0078,-0.0156 0.02155,-0.0442 0.04959,-0.0837 0.08398,-0.11914 0.0145,-0.0153 0.0293,-0.0305 0.04492,-0.0449 0.09608,-0.12522 0.188756,-0.24374 0.277343,-0.35547 -0.0077,0.0117 -0.01271,0.025 -0.01953,0.0371 0.0055,-0.007 0.01062,-0.0135 0.01563,-0.0215 0.0039,-0.006 0.0062,-0.0133 0.0098,-0.0195 h -0.002 c 0.263042,-0.39591 0.56885,-0.85551 0.921875,-1.38282 4.206873,-6.28368 6.451936,-8.72515 7.224609,-9.48632 0.0023,-0.009 0.0043,-0.0183 0.0078,-0.0273 0.01446,-0.0307 0.03859,-0.0586 0.07227,-0.0625 0.0037,-4.2e-4 0.0077,-3.1e-4 0.01172,0 0.03554,-0.0341 0.06696,-0.063 0.09375,-0.0879 0.01233,-0.0168 0.02411,-0.0338 0.03906,-0.0488 0.0057,-0.007 0.01189,-0.0126 0.01758,-0.0195 0.0043,-0.005 0.0079,-0.0121 0.01172,-0.0176 0.0042,-0.006 0.0084,-0.0112 0.01172,-0.0176 0.01103,-0.0212 0.02379,-0.0358 0.03711,-0.0449 0.02579,-0.0336 0.05185,-0.0675 0.07813,-0.10156 4.642514,-6.02421 8.604227,-10.20673 10.556641,-12.32422 0.404382,-0.41473 0.950327,-0.98347 2.345703,-2.47851 6.654865,-7.13021 19.490223,-16.636719 19.490235,-16.636719 0,0 -3.140577,2.454619 -3.238282,2.607422 l -0.002,0.002 v 0.002 l -0.002,0.002 0.002,0.002 c 0.06597,-0.01006 0.971581,-0.654864 3.511719,-2.548828 7.086857,-5.28406 17.246708,-11.421788 18.91406,-12.421875 -6.486078,4.471667 0.23438,-0.140625 0.23438,-0.140625 0,0 -0.0778,0.04753 -0.22656,0.136719 0.0955,-0.0659 0.19357,-0.135213 0.29492,-0.205078 6.9944,-4.821382 17.99609,-9.708984 17.99609,-9.708984 0,0 -0.0367,0.02076 -0.10156,0.05859 0.004,-0.0016 0.008,-0.0023 0.0117,-0.0039 0.0179,-0.0091 0.0378,-0.01634 0.0566,-0.02344 0.0182,-0.0059 0.0334,-0.01378 0.0508,-0.02148 0.0196,-0.0079 0.0406,-0.01438 0.0605,-0.02148 0.0191,-0.007 0.0377,-0.01584 0.0566,-0.02344 0.024,-0.01124 0.0475,-0.02175 0.0723,-0.03125 0.0248,-0.0089 0.0489,-0.01809 0.0742,-0.02539 0.0259,-0.0075 0.0522,-0.01594 0.0781,-0.02344 0.0203,-0.0058 0.04,-0.01107 0.0605,-0.01563 7.4823,-4.157828 16.82813,-6.59375 16.82813,-6.59375 l 0.0996,-0.445312 v -0.002 c -0.004,-0.0078 -0.008,-0.01562 -0.0117,-0.02344 -0.0436,-0.07135 -0.0894,-0.142126 -0.13086,-0.214844 v -0.002 l -0.35156,-0.15039 c -0.0238,0.0078 -0.0513,0.0134 -0.084,0.01367 h -0.0176 c -0.036,3.1e-4 -0.0666,-0.0045 -0.0918,-0.01367 z M 24.980469,121.6543 c 1.011731,-1.41646 1.385909,-1.96017 1.398437,-2.00586 v -0.002 h -0.002 c -0.09393,0.0572 -2.388672,3.14454 -2.388672,3.14454 0,0 0.35888,-0.41871 0.992188,-1.13672 z M 97.525391,73.923828 c 13.296059,-4.820492 -1.394532,0.480469 -1.394532,0.480469 0,0 0.510814,-0.18038 1.394532,-0.480469 z m 22.150389,-1.03125 c -0.0129,0.0054 -0.0246,0.01134 -0.0371,0.01758 -0.003,0.0011 -0.005,0.0028 -0.008,0.0039 v 0.002 0.002 c 0.0151,-0.0086 0.0298,-0.01667 0.0449,-0.02539 z m -1.23047,0.66211 c -0.0188,0.0077 -0.0357,0.01546 -0.0527,0.02734 0.0176,-0.0094 0.0356,-0.01727 0.0527,-0.02734 z m -1.7207,0.998046 c -0.0179,0.0078 -0.0354,0.01669 -0.0527,0.02539 0.006,-0.0022 0.0131,-0.0055 0.0195,-0.0078 0.0106,-0.0059 0.0218,-0.01129 0.0332,-0.01758 z M 48.064453,128.7793 c 7.9e-5,0.003 -1.78e-4,0.005 0,0.008 0.0011,-9.4e-4 0.0028,-0.003 0.0039,-0.004 v -0.002 l -0.002,-0.002 z" />
<path
       style="fill:#ffffff"
       d="m 121.4375,67.34375 -5.375,1.21875 5.59375,-0.65625 z"
       id="path33" />
<path
       style="fill:none"
       d="m 121.26562,67.328125 -4.34375,1.03125 L 116.51562,67.75 Z"
       id="path34" />
<path
       style="fill:#ffffff"
       d="m 119.76562,67.640625 -3.57812,0.890625 3.57812,-0.453125 z"
       id="path35" />
  </g>
</svg>
