<?xml version="1.0" encoding="UTF-8" standalone="no"?>
<!-- Created with Inkscape (http://www.inkscape.org/) -->

<svg
   width="210mm"
   height="297mm"
   viewBox="0 0 210 297"
   version="1.1"
   id="svg1"
   inkscape:version="1.4.4 (dcaf3e7, 2026-05-05)"
   sodipodi:docname="aerius_wordmark_transparency.svg"
   inkscape:dataloss="true"
   inkscape:export-filename="..\OneDrive\Desktop\LOGO\Aerius\aerius_wordmark_transparency.svg"
   inkscape:export-xdpi="495.42093"
   inkscape:export-ydpi="495.42093"
   xmlns:inkscape="http://www.inkscape.org/namespaces/inkscape"
   xmlns:sodipodi="http://sodipodi.sourceforge.net/DTD/sodipodi-0.dtd"
   xmlns="http://www.w3.org/2000/svg"
   xmlns:svg="http://www.w3.org/2000/svg">
  <sodipodi:namedview
     id="namedview1"
     pagecolor="#ffffff"
     bordercolor="#000000"
     borderopacity="0.25"
     inkscape:showpageshadow="2"
     inkscape:pageopacity="0.0"
     inkscape:pagecheckerboard="0"
     inkscape:deskcolor="#d1d1d1"
     inkscape:document-units="mm"
     inkscape:zoom="2.0334082"
     inkscape:cx="321.8734"
     inkscape:cy="384.8219"
     inkscape:window-width="1920"
     inkscape:window-height="1009"
     inkscape:window-x="-8"
     inkscape:window-y="1192"
     inkscape:window-maximized="1"
     inkscape:current-layer="layer1"
     inkscape:export-bgcolor="#ffffff00">
    <inkscape:page
       x="0"
       y="0"
       width="210"
       height="297"
       id="page1"
       margin="0"
       bleed="0" />
  </sodipodi:namedview>
  <defs
     id="defs1" />
  <g
     inkscape:label="Layer 1"
     inkscape:groupmode="layer"
     id="layer1"
     transform="translate(13.98513,-8.464684)">
    <path
       style="font-weight:500;font-size:38.8056px;font-family:'League Spartan';-inkscape-font-specification:'League Spartan Medium';fill:#000000;stroke-width:0.264583"
       d="m 137.18112,39.866931 q 2.25072,0 3.89996,0.523875 1.66864,0.504473 2.63878,1.086557 0.97014,0.562681 1.16417,0.737306 l -2.0373,3.317879 q -0.29104,-0.252236 -1.04775,-0.698501 -0.7373,-0.465667 -1.82386,-0.83432 -1.06715,-0.368653 -2.38655,-0.368653 -1.97908,0 -3.14325,0.776112 -1.16417,0.756709 -1.16417,2.211919 0,0.97014 0.62089,1.707446 0.62089,0.737307 1.76566,1.377599 1.16417,0.640292 2.7746,1.299987 1.35819,0.562682 2.63878,1.280585 1.29999,0.717904 2.32833,1.688044 1.02835,0.97014 1.62984,2.250725 0.62089,1.280584 0.62089,2.949225 0,1.746252 -0.7179,3.104448 -0.71791,1.338793 -1.97909,2.270128 -1.26118,0.911931 -2.91042,1.397001 -1.62983,0.465667 -3.4925,0.465667 -2.44476,0 -4.40444,-0.582084 -1.94028,-0.601486 -3.14325,-1.241779 -1.20298,-0.659695 -1.397,-0.853723 l 2.15371,-3.473101 q 0.23283,0.194028 0.85372,0.582084 0.64029,0.368653 1.57163,0.795515 0.93133,0.407458 2.05669,0.6985 1.14477,0.27164 2.36714,0.27164 2.34774,0 3.55072,-1.008946 1.20297,-1.028348 1.20297,-2.638781 0,-1.222376 -0.77611,-2.114905 -0.75671,-0.911931 -2.0955,-1.649238 -1.31939,-0.737306 -3.00744,-1.45521 -1.72685,-0.756709 -3.20146,-1.707446 -1.45521,-0.950737 -2.34774,-2.308933 -0.89253,-1.377599 -0.89253,-3.337282 0,-1.959683 1.10596,-3.414893 1.12536,-1.474612 2.96863,-2.28953 1.84327,-0.814917 4.05519,-0.814917 z"
       id="path28" />
    <path
       style="font-weight:500;font-size:38.8056px;font-family:'League Spartan';-inkscape-font-specification:'League Spartan Medium';fill:#000000;stroke-width:0.264583"
       d="m 117.08318,39.888347 h 4.07459 v 15.852087 q 0,3.162656 -1.26118,5.471589 -1.24178,2.289531 -3.4731,3.53131 -2.23133,1.222376 -5.19995,1.222376 -2.94923,0 -5.19995,-1.222376 -2.25073,-1.241779 -3.51191,-3.53131 -1.26118,-2.308933 -1.26118,-5.471589 V 39.888347 h 4.07458 v 15.638656 q 0,2.095503 0.75671,3.589518 0.77612,1.494016 2.09551,2.28953 1.33879,0.795515 3.04624,0.795515 1.70744,0 3.02683,-0.795515 1.31939,-0.795514 2.0761,-2.28953 0.75671,-1.494015 0.75671,-3.589518 z"
       id="path27" />
    <path
       style="font-weight:500;font-size:38.8056px;font-family:'League Spartan';-inkscape-font-specification:'League Spartan Medium';fill:#000000;stroke-width:0.264583"
       d="m 87.395179,39.866023 h 4.07459 v 25.611695 h -4.07459 z"
       id="path26" />
    <path
       id="path25"
       style="font-weight:500;font-size:38.8056px;font-family:'League Spartan';-inkscape-font-specification:'League Spartan Medium';fill:#000000;stroke-width:0.264583"
       d="M 62.246909 39.551675 L 62.246909 65.163549 L 66.321596 65.163549 L 66.321596 54.550243 L 69.620103 54.550243 L 75.440936 65.163549 L 80.039105 65.163549 L 73.73303 54.239668 C 74.470337 54.174992 75.266241 53.884261 76.119964 53.366853 C 76.973688 52.849445 77.704125 52.073129 78.312079 51.038313 C 78.920033 50.003497 79.224168 48.690564 79.224168 47.099535 C 79.224168 45.49557 78.888074 44.131091 78.215444 43.005728 C 77.542814 41.880365 76.630927 41.026728 75.479693 40.444644 C 74.341396 39.849625 73.067124 39.551675 71.657188 39.551675 L 62.246909 39.551675 z M 66.029624 42.498782 L 69.948765 42.498782 C 71.319896 42.498782 72.464781 42.828691 73.383181 43.488386 C 74.30158 44.148081 74.760874 45.260491 74.760874 46.82565 C 74.760874 48.377874 74.295395 49.496986 73.36406 50.182551 C 72.432726 50.868116 71.281139 51.210912 69.910008 51.210912 L 66.029624 51.210912 L 66.029624 42.498782 z " />
    <path
       style="font-weight:500;font-size:38.8056px;font-family:'League Spartan';-inkscape-font-specification:'League Spartan Medium';fill:#000000;stroke-width:0.264583"
       d="m 53.89177,61.385501 -15.477091,0.09198 c -0.0077,0.03139 -0.02556,0.05007 -0.04548,0.05581 v 3.500045 H 53.89177 Z"
       id="path6" />
    <path
       style="font-weight:500;font-size:38.8056px;font-family:'League Spartan';-inkscape-font-specification:'League Spartan Medium';fill:#000000;stroke-width:0.264583"
       d="m 38.364036,57.852383 v 0.0677 c 0.0019,-0.01613 0.0035,-0.03241 0.0052,-0.04858 v -0.01912 c -0.0017,1.94e-4 -0.0035,-1.77e-4 -0.0052,0 z"
       id="path5" />
    <path
       style="font-weight:500;font-size:38.8056px;font-family:'League Spartan';-inkscape-font-specification:'League Spartan Medium';fill:#000000;stroke-width:0.264583"
       d="m 53.697467,50.423379 -15.32568,0.06873 c -8.28e-4,8.34e-4 -0.0018,0.0018 -0.0026,0.0026 v 3.38739 c 0.01091,0.01021 0.02023,0.02554 0.02584,0.04599 l 15.302426,0.04599 z"
       id="path4" />
    <path
       style="font-weight:500;font-size:38.8056px;font-family:'League Spartan';-inkscape-font-specification:'League Spartan Medium';fill:#000000;stroke-width:0.264583"
       d="m 38.369203,49.925218 c -0.0028,0.0051 -0.0058,0.01 -0.0088,0.01499 v 5.16e-4 c 9.65e-4,0.0056 0.0019,0.01101 0.0031,0.01654 0.0019,0.0092 0.0038,0.01866 0.0057,0.02791 z"
       id="path3" />
    <path
       style="font-weight:500;font-size:38.8056px;font-family:'League Spartan';-inkscape-font-specification:'League Spartan Medium';fill:#000000;stroke-width:0.264583"
       d="m 38.369203,49.337141 c -0.0015,0.0016 -0.003,0.0032 -0.0047,0.0046 0.0016,0.0018 0.0031,0.0034 0.0047,0.0052 z"
       id="path2" />
    <path
       style="font-weight:500;font-size:38.8056px;font-family:'League Spartan';-inkscape-font-specification:'League Spartan Medium';fill:#000000;stroke-width:0.264583"
       d="m 38.386253,43.133902 c -4.43e-4,9.91e-4 -7.81e-4,0.002 -0.001,0.0031 4.16e-4,-0.0011 7.51e-4,-0.0021 0.001,-0.0031 z"
       id="path1" />
    <path
       style="font-weight:500;font-size:38.8056px;font-family:'League Spartan';-inkscape-font-specification:'League Spartan Medium';fill:#000000;stroke-width:0.264583"
       d="m 38.369203,39.421983 v 3.608049 c 0.008,0.0013 0.01596,0.0038 0.02377,0.0078 0.0072,0.0036 0.01355,0.0094 0.02015,0.01395 0.0056,0.0055 0.01051,0.01136 0.01447,0.01757 H 53.89177 v -3.647323 z"
       id="path23" />
    <path
       id="path22"
       style="font-weight:500;font-size:38.8056px;font-family:'League Spartan';-inkscape-font-specification:'League Spartan Medium';fill:#000000;stroke-width:0.264583"
       d="M 17.255857 39.161518 L 7.5742776 64.773392 L 11.939903 64.773392 L 14.074139 58.913801 L 14.132534 58.913801 L 19.312579 44.128657 L 19.370974 44.128657 L 24.579958 58.913801 L 24.629051 58.913801 L 26.744167 64.773392 L 31.090155 64.773392 L 21.427696 39.161518 L 17.255857 39.161518 z " />
  </g>
</svg>
