<?xml version="1.0" encoding="UTF-8" standalone="no"?>
<!-- Created with Inkscape (http://www.inkscape.org/) -->

<svg
   version="1.1"
   id="svg1"
   width="280"
   height="55"
   viewBox="0 0 280 55"
   sodipodi:docname="carbonyx_master.svg"
   inkscape:version="1.4.4 (dcaf3e7, 2026-05-05)"
   inkscape:export-filename="carbonyx_black_.png"
   inkscape:export-xdpi="1404.34"
   inkscape:export-ydpi="1404.34"
   xmlns:inkscape="http://www.inkscape.org/namespaces/inkscape"
   xmlns:sodipodi="http://sodipodi.sourceforge.net/DTD/sodipodi-0.dtd"
   xmlns="http://www.w3.org/2000/svg"
   xmlns:svg="http://www.w3.org/2000/svg">
  <defs
     id="defs1" />
  <sodipodi:namedview
     id="namedview1"
     pagecolor="#ffffff"
     bordercolor="#000000"
     borderopacity="0.25"
     inkscape:showpageshadow="2"
     inkscape:pageopacity="0.0"
     inkscape:pagecheckerboard="0"
     inkscape:deskcolor="#d1d1d1"
     inkscape:zoom="2.8284271"
     inkscape:cx="151.49763"
     inkscape:cy="24.218407"
     inkscape:window-width="1920"
     inkscape:window-height="1009"
     inkscape:window-x="-8"
     inkscape:window-y="1192"
     inkscape:window-maximized="1"
     inkscape:current-layer="g1"
     inkscape:export-bgcolor="#ffffffff">
    <inkscape:page
       x="0"
       y="0"
       width="280"
       height="55"
       id="page2"
       margin="0"
       bleed="0" />
  </sodipodi:namedview>
  <g
     inkscape:groupmode="layer"
     inkscape:label="Image"
     id="g1">
    <path
       id="text8"
       style="font-style:normal;font-variant:normal;font-weight:bold;font-stretch:normal;font-size:48px;font-family:'League Spartan';-inkscape-font-specification:'League Spartan, Bold';font-variant-ligatures:normal;font-variant-caps:normal;font-variant-numeric:normal;font-variant-east-asian:normal;writing-mode:lr-tb;direction:ltr;fill:#000000"
       d="m 24.861328,8.734375 c -2.336,0 -4.535609,0.4160469 -6.599609,1.2480469 -2.048,0.8160001 -3.855828,1.9690311 -5.423828,3.4570311 -1.552,1.488 -2.768438,3.239859 -3.6484379,5.255859 -0.88,2 -1.3203125,4.167907 -1.3203125,6.503907 0,2.336 0.4403125,4.503906 1.3203125,6.503906 0.8959999,1.984 2.1198749,3.719031 3.6718749,5.207031 1.568,1.472 3.375828,2.617594 5.423828,3.433594 2.048,0.816 4.240172,1.222656 6.576172,1.222656 2.496,0 4.649031,-0.328375 6.457031,-0.984375 1.824,-0.656 3.111282,-1.303359 3.863282,-1.943359 l -3.072266,-6.095703 c -0.592,0.416 -1.494938,0.839484 -2.710937,1.271484 -1.2,0.432 -2.537766,0.648438 -4.009766,0.648438 -1.632,0 -3.055484,-0.248141 -4.271484,-0.744141 -1.216001,-0.512 -2.230874,-1.207891 -3.046876,-2.087891 -0.815999,-0.88 -1.424218,-1.872562 -1.824218,-2.976562 -0.4,-1.12 -0.59961,-2.295344 -0.59961,-3.527344 0,-1.216 0.19961,-2.376469 0.59961,-3.480469 0.4,-1.104 1.008223,-2.094609 1.824218,-2.974609 0.816,-0.88 1.830874,-1.568453 3.046876,-2.064453 1.216,-0.512 2.639484,-0.767578 4.271484,-0.767578 1.472,0 2.809766,0.214484 4.009766,0.646484 1.216,0.416 2.118937,0.841438 2.710937,1.273438 l 3.072266,-6.097657 c -0.752,-0.64 -2.039282,-1.287359 -3.863282,-1.943359 -1.808,-0.656 -3.961031,-0.984375 -6.457031,-0.984375 z m 117.599612,0 c -2.304,0 -4.44764,0.4160469 -6.43164,1.2480469 -1.984,0.8320001 -3.7116,1.9924691 -5.1836,3.4804691 -1.472,1.488 -2.61564,3.232421 -3.43164,5.232421 -0.816,1.984001 -1.22461,4.127641 -1.22461,6.431641 0,2.32 0.38435,4.480469 1.15235,6.480469 0.784,1.984 1.89593,3.728422 3.33593,5.232422 1.44,1.488 3.15272,2.646515 5.13672,3.478515 2,0.832 4.21449,1.248047 6.64649,1.248047 2.384,0 4.56873,-0.416047 6.55273,-1.248047 1.984,-0.832 3.70416,-1.990515 5.16016,-3.478515 1.456,-1.504 2.57537,-3.248422 3.35937,-5.232422 0.784,-2 1.17578,-4.160469 1.17578,-6.480469 0,-2.304 -0.40665,-4.44764 -1.22265,-6.431641 -0.8,-2 -1.9362,-3.744421 -3.40821,-5.232421 -1.45598,-1.488 -3.17615,-2.648469 -5.16015,-3.4804691 -1.968,-0.832 -4.12103,-1.2480469 -6.45703,-1.2480469 z M 49.822266,9.3105469 37.292969,40.990234 h 7.68164 l 2.283203,-6.242187 v -0.002 c 0.0015,-0.01195 0.0036,-0.02387 0.0078,-0.03711 0.0034,-0.01065 0.0076,-0.0208 0.01172,-0.03125 -0.0029,-0.02099 0.0049,-0.04699 0.02734,-0.07422 0.0029,-0.01018 0.0056,-0.02125 0.0098,-0.03125 0.0095,-0.02166 0.02285,-0.04427 0.03125,-0.06641 0.0086,-0.01823 0.01279,-0.03651 0.02148,-0.05469 0.0088,-0.01886 0.01669,-0.03779 0.02539,-0.05664 0.0087,-0.01961 0.01779,-0.04045 0.02539,-0.06055 0.0091,-0.02173 0.01698,-0.04329 0.02734,-0.06445 0.0098,-0.02044 0.01804,-0.04185 0.02734,-0.0625 0.0097,-0.02207 0.0195,-0.04438 0.0293,-0.06641 0.0099,-0.02295 0.01963,-0.0454 0.0332,-0.06641 0.01447,-0.02365 0.02836,-0.04675 0.04297,-0.07031 0.01617,-0.02798 0.03351,-0.05552 0.04883,-0.08398 0.01286,-0.02171 0.02507,-0.04344 0.03906,-0.06445 0.011,-0.01711 0.02046,-0.03547 0.03125,-0.05273 0.0085,-0.01322 0.01588,-0.02819 0.02148,-0.04297 0.0066,-0.01579 0.01353,-0.03081 0.01953,-0.04687 0.0069,-0.01807 0.01443,-0.03599 0.01953,-0.05469 0.0094,-0.02532 0.01824,-0.05076 0.02734,-0.07617 0.01292,-0.03316 0.02507,-0.06494 0.03906,-0.09766 0.01047,-0.02492 0.0215,-0.05178 0.0332,-0.07617 0.0103,-0.02335 0.02074,-0.04511 0.03125,-0.06836 0.01045,-0.02266 0.01824,-0.04709 0.02734,-0.07031 0.009,-0.0215 0.01629,-0.04301 0.02539,-0.06445 0.007,-0.01842 0.01122,-0.03746 0.01563,-0.05664 0.0043,-0.02097 0.0051,-0.04325 0.0078,-0.06445 0.0027,-0.02138 0.01039,-0.03749 0.01953,-0.04687 9.53e-4,-8.22e-4 0.0049,-0.0032 0.0059,-0.0039 0.001,-5.92e-4 0.0048,-0.0034 0.0059,-0.0039 0.0011,-3.66e-4 0.0048,-0.0017 0.0059,-0.002 0.0106,-0.0025 0.02252,0.0018 0.03125,0.0098 0.0011,0.0012 0.0029,0.0025 0.0039,0.0039 10e-4,-0.0034 9.76e-4,-0.0064 0.002,-0.0098 0.0073,-0.02532 0.01739,-0.04912 0.02539,-0.07422 0.01089,-0.03495 0.02254,-0.06988 0.03711,-0.103515 0.01634,-0.03983 0.03423,-0.07831 0.05273,-0.117188 0.01523,-0.03567 0.03249,-0.07226 0.04883,-0.107422 0.01425,-0.03121 0.02563,-0.06218 0.03906,-0.09375 0.01697,-0.03816 0.03469,-0.0767 0.05078,-0.115234 0.01326,-0.03587 0.02555,-0.07164 0.03906,-0.107422 0.01534,-0.03946 0.03252,-0.07896 0.05078,-0.117188 0.01577,-0.03404 0.02774,-0.06923 0.04297,-0.103515 0.01276,-0.03169 0.02719,-0.0617 0.03906,-0.09375 0.01272,-0.03152 0.02476,-0.06403 0.03711,-0.0957 0.01109,-0.02998 0.02093,-0.0603 0.0332,-0.08984 0.01446,-0.03341 0.02672,-0.06808 0.04102,-0.101562 0.0134,-0.03293 0.02536,-0.06543 0.03516,-0.09961 0.0087,-0.03198 0.0196,-0.064 0.0293,-0.0957 0.01305,-0.04145 0.0265,-0.0834 0.03906,-0.125 0.01353,-0.04386 0.02833,-0.08675 0.04102,-0.130859 0.0096,-0.03187 0.0196,-0.06388 0.0293,-0.0957 0.0086,-0.02799 0.01901,-0.0546 0.0293,-0.08203 0.0084,-0.02436 0.01629,-0.05009 0.02539,-0.07422 0.0088,-0.02323 0.01539,-0.04553 0.02539,-0.06836 0.01161,-0.02829 0.0209,-0.05717 0.03125,-0.08594 0.01569,-0.04055 0.0346,-0.08074 0.05078,-0.121094 0.01602,-0.04081 0.03074,-0.08156 0.04492,-0.123047 0.01272,-0.03815 0.0235,-0.07818 0.0332,-0.117187 0.01088,-0.04024 0.02291,-0.0793 0.03516,-0.119141 0.01152,-0.03592 0.0237,-0.07149 0.03516,-0.107422 0.0095,-0.02993 0.01709,-0.06152 0.02539,-0.0918 0.0089,-0.03416 0.01929,-0.06675 0.02539,-0.101562 0.0079,-0.03721 0.01449,-0.07589 0.02148,-0.113282 0.009,-0.04008 0.02068,-0.07806 0.0332,-0.117187 0.01163,-0.03888 0.02455,-0.07732 0.03906,-0.115235 0.01088,-0.02786 0.02252,-0.05688 0.03516,-0.08398 0.01253,-0.02629 0.02421,-0.05311 0.03516,-0.08008 0.01315,-0.03333 0.02704,-0.06583 0.03906,-0.09961 0.01436,-0.04307 0.02732,-0.08562 0.04102,-0.128907 0.01619,-0.04783 0.03298,-0.09533 0.05078,-0.142578 0.01372,-0.03731 0.02904,-0.07537 0.04102,-0.113281 0.0107,-0.03319 0.02265,-0.06638 0.0332,-0.09961 0.0097,-0.02965 0.01876,-0.05733 0.03125,-0.08594 0.0079,-0.01988 0.01824,-0.03972 0.02344,-0.06055 0.0077,-0.02537 0.01458,-0.05057 0.02148,-0.07617 0.009,-0.02795 0.01984,-0.05556 0.02734,-0.08398 0.0092,-0.02939 0.01744,-0.0587 0.02734,-0.08789 0.0067,-0.01984 0.01343,-0.04049 0.01953,-0.06055 0.0066,-0.02004 0.01423,-0.04011 0.01953,-0.06055 0.0054,-0.01947 0.01002,-0.03835 0.01172,-0.05859 0.004,-0.02088 0.0079,-0.04206 0.01367,-0.0625 0.0076,-0.02669 0.02259,-0.04153 0.03711,-0.04687 l 0.002,-0.002 c 0.0044,-0.01002 0.008,-0.01949 0.01367,-0.02734 l 3.644531,-10.314453 h 0.07227 l 3.595704,10.18164 c 0.05429,0.03374 0.105253,0.09918 0.136718,0.199219 0.0144,0.04589 0.0071,0.02231 0.02344,0.07227 0.02354,0.07552 0.04093,0.153409 0.05859,0.230469 0.02336,0.08531 0.0523,0.169326 0.07813,0.253906 0.0361,0.115571 0.07868,0.227997 0.125,0.339844 0.04286,0.09635 0.08613,0.193927 0.117187,0.294922 0.02834,0.08849 0.05041,0.176378 0.07617,0.265624 0.03487,0.116536 0.06608,0.234101 0.09766,0.351563 0.02611,0.09961 0.05334,0.199948 0.08203,0.298828 0.02997,0.099 0.06945,0.194106 0.105468,0.291016 0.02694,0.08023 0.05451,0.161624 0.08594,0.240234 0.02801,0.06845 0.0525,0.138401 0.08008,0.207031 0.0302,0.07649 0.05216,0.153869 0.08203,0.230469 0.03693,0.09831 0.07779,0.196439 0.119141,0.292969 0.03173,0.07539 0.06338,0.151432 0.0957,0.226562 0.02428,0.05798 0.04677,0.114405 0.07227,0.171875 0.02184,0.05353 0.05449,0.103607 0.08203,0.154297 0.03782,0.06501 0.07952,0.12708 0.115234,0.19336 0.04767,0.08653 0.0949,0.174148 0.140625,0.261718 0.03819,0.08035 0.0749,0.159821 0.103516,0.244141 0.03036,0.08358 0.05468,0.169569 0.07617,0.255859 0.01876,0.08017 0.04012,0.159052 0.0625,0.238282 0.02192,0.07241 0.03846,0.14641 0.06055,0.21875 0.02525,0.08535 0.04271,0.173035 0.0625,0.259765 0.01042,0.04982 0.02346,0.09946 0.03711,0.148438 0.0097,0.03326 0.01719,0.06588 0.03125,0.09766 0.01857,0.04778 0.03658,0.09783 0.05273,0.146484 0.0086,0.03151 0.02434,0.05898 0.03906,0.08789 0.0307,0.04675 0.06496,0.08944 0.09766,0.134766 0.02232,0.03094 0.04034,0.06092 0.05273,0.08984 h 0.0039 l 2.302734,6.359375 H 69.4533 L 56.949219,9.3105469 Z m 22.007812,0 V 40.990234 h 7.175781 V 28.414062 h 1.728516 l 6.863281,12.576172 h 8.064453 L 87.957031,27.863281 c 0.848,-0.128 1.767766,-0.504906 2.759766,-1.128906 0.992,-0.64 1.840922,-1.591469 2.544922,-2.855469 0.72,-1.28 1.080078,-2.919922 1.080078,-4.919922 0,-2 -0.423485,-3.720156 -1.271485,-5.160156 -0.831997,-1.456 -1.968203,-2.567937 -3.408203,-3.335937 -1.44,-0.7680128 -3.079924,-1.1523441 -4.919921,-1.1523441 z m 28.728512,0 V 40.990234 h 12.16797 c 2.192,0 4.03897,-0.374953 5.54297,-1.126953 1.52,-0.768 2.67303,-1.823968 3.45703,-3.167969 0.8,-1.359999 1.19922,-2.929078 1.19922,-4.705078 0,-1.28 -0.18473,-2.382548 -0.55273,-3.310546 -0.352,-0.944003 -0.83889,-1.729516 -1.46289,-2.353516 -0.608,-0.64 -1.29646,-1.134328 -2.06446,-1.486328 -0.752,-0.368 -1.52812,-0.601266 -2.32812,-0.697266 0.912,-0.208 1.75153,-0.624047 2.51953,-1.248047 0.784,-0.64 1.40905,-1.455265 1.87305,-2.447265 0.48,-0.992 0.71875,-2.120766 0.71875,-3.384766 0,-1.92 -0.47946,-3.438594 -1.43946,-4.558594 -0.944,-1.136 -2.19214,-1.953218 -3.74414,-2.449218 -1.536,-0.496016 -3.20762,-0.7441411 -5.01562,-0.7441411 z m 62.25586,0 V 40.990234 h 7.17578 V 16.925781 l 12.26368,24.064453 h 9.83984 V 9.3105469 h -7.17578 V 33.246094 L 172.60547,9.3105469 Z m 31.8711,0 10.91992,20.2812501 v 11.398437 h 7.17578 V 29.591797 L 223.6543,9.3105469 h -8.66407 L 209.18164,21.382812 203.39844,9.3105469 Z M 79.005859,14.974609 h 3.216797 c 1.28,0 2.391938,0.311547 3.335938,0.935547 0.944,0.608 1.416015,1.705063 1.416015,3.289063 0,1.584 -0.481406,2.6885 -1.441406,3.3125 -0.96,0.624 -2.079375,0.935547 -3.359375,0.935547 h -3.167969 z m 28.728521,0.07227 h 2.63867 c 1.28,0 2.28939,0.231313 3.02539,0.695313 0.736,0.448 1.10351,1.321187 1.10351,2.617187 0,0.72 -0.15303,1.359922 -0.45703,1.919922 -0.288,0.544 -0.71892,0.967484 -1.29492,1.271484 -0.56,0.304 -1.26528,0.457033 -2.11328,0.457031 h -2.90234 z m 34.72656,0.384766 c 1.744,0 3.27198,0.440312 4.58398,1.320312 1.328,0.864 2.36166,2.022516 3.09766,3.478516 0.752,1.456 1.12695,3.088484 1.12695,4.896484 0,1.808 -0.37495,3.447922 -1.12695,4.919922 -0.736,1.456 -1.76966,2.616469 -3.09766,3.480469 -1.312,0.864 -2.83998,1.294922 -4.58398,1.294922 -1.744,0 -3.27942,-0.430922 -4.60742,-1.294922 -1.312,-0.864 -2.34371,-2.024469 -3.09571,-3.480469 -0.736,-1.472 -1.10351,-3.111922 -1.10351,-4.919922 0,-1.808 0.36751,-3.440484 1.10351,-4.896484 0.752,-1.456 1.78371,-2.614516 3.09571,-3.478516 1.328,-0.88 2.86342,-1.320312 4.60742,-1.320312 z m -34.72656,12.191406 h 3.14257 c 1.424,0 2.5285,0.304109 3.3125,0.912109 0.8,0.592 1.20118,1.528594 1.20117,2.808594 0,0.816 -0.15303,1.519328 -0.45703,2.111328 -0.304,0.576 -0.78345,1.02375 -1.43945,1.34375 -0.64,0.304 -1.47209,0.457031 -2.49609,0.457031 h -3.26367 z m -56.123052,2.763672 c 0.0034,0.01837 0.0063,0.03633 0.0098,0.05469 0.0039,0.01105 0.0079,0.02215 0.01172,0.0332 -0.0074,-0.0294 -0.01417,-0.05846 -0.02148,-0.08789 z m -0.214844,2.966797 -0.002,0.002 v 0.002 c 0.01294,0.03532 0.02561,0.07034 0.03906,0.105469 -0.01269,-0.03663 -0.0248,-0.07264 -0.03711,-0.109375 z m -1.917968,1.158203 v 0.002 c -0.0068,0.0071 -0.02433,0.03098 -0.06055,0.08008 0.02083,-0.02605 0.04322,-0.05042 0.06445,-0.07617 v -0.002 -0.002 l -0.002,-0.002 z m -0.21875,0.109375 c -0.002,0.0033 -0.0039,0.0065 -0.0059,0.0098 h 0.0059 c 1.69e-4,-0.0032 -2.16e-4,-0.0065 0,-0.0098 z" />
    <path
       id="path9"
       style="fill:#000000"
       d="m 274.04102,6.4511719 c -0.13313,0.015208 -0.26617,0.035499 -0.39649,0.068359 -0.11839,0.026625 -0.23703,0.052376 -0.35351,0.083984 0.2801,-0.057286 0.53036,-0.1066779 0.75,-0.152343 z M 271.9043,6.890625 c -5.77711,1.24287 -12.67472,3.897061 -14.81055,4.746094 -0.1115,0.0604 -0.22745,0.122448 -0.34766,0.1875 -6.70045,3.626126 -17.18508,10.08986 -24.67382,16.86914 -7.48874,6.779279 -15.45118,19.628907 -15.45118,19.628907 l -0.31445,0.867187 11.67383,-0.232422 c 0.11655,-0.09948 0.23464,-0.147018 0.33984,-0.154297 0.1105,-0.0076 0.20623,0.02976 0.26953,0.09961 5.08817,-10.037691 18.92615,-26.329244 26.42188,-31.716797 7.56757,-5.439189 16.31641,-8.2773439 16.3164,-8.2773439 l 1.1836,-0.9472656 0.55078,-0.3925781 -0.69922,-0.640625 c -0.19893,0.050471 -0.35484,0.027656 -0.45898,-0.037109 z m -14.81055,4.746094 c 6.10349,-3.3062439 -0.66406,0.265625 -0.66406,0.265625 0,0 0.23778,-0.09617 0.66406,-0.265625 z m -30.8457,41.71289 c -0.0462,0.118953 -0.0723,0.196905 -0.0723,0.220703 v 0.002 0.002 0.002 h 0.002 v 0.002 h 0.002 0.002 l 0.002,-0.002 c 0.0181,-0.01508 0.0633,-0.08143 0.13477,-0.207031 -0.0241,-0.0034 -0.0479,-0.01051 -0.0703,-0.01953 z" />
    <path
       style="fill:#000000"
       d="m 236.09234,21.047297 7.01577,-4.650901 c 0,0 -3.94144,-4.572072 -5.43919,-7.4099095 -1.49775,-2.8378378 -0.15766,-0.3153153 -0.15766,-0.3153153 l -10.09009,0.3153153 c 0,0 0.31532,1.4189185 8.67117,12.0608105 z"
       id="path12" />
    <path
       id="path13"
       style="fill:#000000"
       d="m 249.74414,24.804688 -5.85156,6.548828 10.8418,16.527343 9.77734,-0.105468 c -0.0591,-0.04708 -0.0709,-0.113954 -0.041,-0.164063 l -0.0391,-0.0098 z" />
  </g>
</svg>
