<?xml version="1.0" encoding="UTF-8" standalone="no"?>
<!-- Created with Inkscape (http://www.inkscape.org/) -->

<svg
   version="1.1"
   id="svg1"
   width="156"
   height="155"
   viewBox="0 0 156 155"
   xmlns="http://www.w3.org/2000/svg"
   xmlns:svg="http://www.w3.org/2000/svg">
  <defs
     id="defs1" />
  <g
     id="g1">
    <path
       id="path3-5"
       style="fill:#000000;stroke-width:0.909303"
       d="m 150.25299,56.21246 c -0.0964,0.0063 -0.19608,0.01226 -0.29843,0.01915 -6.59688,0.443886 -19.72092,2.60765 -19.72092,2.60765 0,0 3.81682,-0.500826 3.99438,-0.485145 h 0.002 0.002 l 0.002,0.0017 v 0.0016 h -0.002 l -0.002,0.0017 c -0.0886,0.03204 -1.08507,0.193263 -3.79081,0.592067 -6.88089,1.014179 -16.018,3.42988 -19.47978,4.379063 -0.41911,0.122689 -0.86664,0.253465 -1.34201,0.392583 -15.736278,4.605305 -25.150188,9.211354 -25.150188,9.211354 0,0 12.98804,-5.437589 0.0692,0 -12.91886,5.437588 -27.24323,14.081941 -27.24323,14.081941 0,0 7.82384,-3.845166 0.0494,0.07818 -6.47658,3.268427 -16.59612,12.308247 -19.79405,15.235757 -0.24711,0.27936 -0.53156,0.60031 -0.85778,0.9671 -5.19917,5.84589 -12.63339,17.14602 -12.63339,17.14602 l -0.2688,0.54099 26.17794,-0.33195 h 0.002 c 0.0454,-0.034 0.0919,-0.0518 0.13638,-0.0543 0.0106,-5.7e-4 0.0216,-7.9e-4 0.0316,0 1.19793,-2.014 2.50769,-3.59226 3.49435,-4.64716 0.003,-0.004 0.005,-0.008 0.008,-0.0127 0.0218,-0.0361 0.0502,-0.0684 0.085,-0.0974 0.0147,-0.0125 0.0297,-0.0249 0.0454,-0.0367 0.0972,-0.10232 0.191,-0.19916 0.28065,-0.29045 -0.008,0.01 -0.0128,0.0204 -0.0198,0.0303 0.006,-0.006 0.0107,-0.011 0.0158,-0.0175 0.004,-0.005 0.006,-0.0108 0.01,-0.0159 h -0.002 c 0.26618,-0.3235 0.57564,-0.69902 0.93287,-1.12988 4.2571,-5.1343 6.52896,-7.12919 7.31086,-7.75113 0.002,-0.007 0.004,-0.015 0.008,-0.0223 0.0146,-0.0251 0.039,-0.0479 0.0732,-0.0511 0.004,-3.4e-4 0.008,-2.5e-4 0.0119,0 0.0359,-0.0279 0.0677,-0.0515 0.0949,-0.0718 0.0125,-0.0137 0.0244,-0.0276 0.0395,-0.0399 0.006,-0.006 0.0121,-0.0103 0.0178,-0.0159 0.004,-0.004 0.008,-0.01 0.0119,-0.0143 0.004,-0.005 0.009,-0.009 0.0119,-0.0144 0.0112,-0.0173 0.024,-0.0293 0.0376,-0.0367 0.0261,-0.0274 -13.6976,14.69485 -13.671,14.66702 4.69793,-4.92229 22.45694,-23.089766 24.43266,-24.819932 0.4092,-0.338867 0.96167,-0.803576 2.37369,-2.025151 6.73431,-5.825983 19.72288,-13.593612 19.72289,-13.593612 0,0 -3.17806,2.005632 -3.27693,2.130484 l -0.002,0.0017 v 0.0016 l -0.002,0.0017 0.002,0.0016 c 0.0668,-0.0082 0.98318,-0.53508 3.55364,-2.082609 7.171448,-4.317524 17.452578,-9.332567 19.139838,-10.149723 -6.56351,3.65373 0.23717,-0.114903 0.23717,-0.114903 0,0 -0.0787,0.03884 -0.22926,0.111711 0.0966,-0.05384 0.19588,-0.11048 0.29843,-0.167566 7.0779,-3.939478 18.21092,-7.933063 18.21092,-7.933063 0,0 -0.0372,0.01696 -0.10278,0.04788 0.004,-0.0013 0.008,-0.0019 0.0119,-0.0032 0.0181,-0.0074 0.0383,-0.01335 0.0573,-0.01915 0.0184,-0.0048 0.0338,-0.01126 0.0514,-0.01755 0.0198,-0.0065 0.0411,-0.01175 0.0612,-0.01755 0.0194,-0.0057 0.0382,-0.01294 0.0572,-0.01915 0.0243,-0.0092 0.0481,-0.01777 0.0732,-0.02554 0.0251,-0.0073 0.0494,-0.01478 0.0751,-0.02074 0.0262,-0.0061 0.0528,-0.01302 0.079,-0.01915 0.0205,-0.0047 0.0405,-0.009 0.0612,-0.01277 7.57161,-3.397298 17.029,-5.387653 17.029,-5.387653 l 0.10079,-0.363857 v -0.0017 c -0.004,-0.0064 -0.008,-0.01276 -0.0119,-0.01915 -0.0441,-0.0583 -0.0905,-0.116129 -0.13242,-0.175546 v -0.0017 l -0.35576,-0.122881 c -0.0241,0.0064 -0.0519,0.01095 -0.085,0.01117 h -0.0178 c -0.0364,2.54e-4 -0.0674,-0.0037 -0.0929,-0.01117 z M 37.548522,102.32987 c 1.0238,-1.15737 1.40244,-1.60162 1.41512,-1.63896 v -0.002 h -0.002 c -0.0951,0.0468 -2.41719,2.56936 -2.41719,2.56936 0,0 0.36316,-0.34213 1.00403,-0.9288 z M 110.95939,63.330033 c 13.45478,-3.93875 -1.41116,0.392584 -1.41116,0.392584 0,0 0.5169,-0.147385 1.41116,-0.392584 z m 22.41481,-0.842618 c -0.013,0.0044 -0.0249,0.0093 -0.0376,0.01436 -0.003,8.77e-4 -0.005,0.0023 -0.008,0.0032 v 0.0017 0.0017 c 0.0153,-0.007 0.0302,-0.01362 0.0454,-0.02075 z m -1.24516,0.541 c -0.019,0.0063 -0.0361,0.01263 -0.0533,0.02234 0.0178,-0.0077 0.036,-0.01412 0.0533,-0.02234 z m -1.74124,0.815488 c -0.0181,0.0064 -0.0358,0.01364 -0.0533,0.02075 0.006,-0.0018 0.0132,-0.0045 0.0197,-0.0064 0.0107,-0.0048 0.0221,-0.0092 0.0336,-0.01436 z M 60.908052,108.1516 c 8e-5,0.002 -1.8e-4,0.004 0,0.006 9.7e-4,-7.7e-4 0.003,-0.002 0.004,-0.003 v -0.002 l -0.002,-0.002 z" />
    <path
       d="m 78.872532,109.1462 q 7.62668,0 13.5667,-2.12667 5.94001,-2.20001 8.726678,-4.32668 l 7.84669,15.62004 q -3.37334,2.93334 -11.660028,5.94001 -8.21335,3.00667 -19.65338,3.00667 -10.70669,0 -20.02004,-3.74001 -9.31336,-3.81334 -16.35338,-10.56002 -7.04001,-6.82002 -11.00002,-15.91337 -3.96001,-9.166688 -3.96001,-19.800046 0,-10.633358 3.88667,-19.800046 3.96001,-9.240022 11.00003,-16.060038 7.04002,-6.820016 16.35337,-10.633358 9.38669,-3.813342 20.09338,-3.813342 11.44003,0 19.65338,3.006674 8.286688,3.006673 11.660028,5.940014 l -7.84669,15.620036 q -2.786668,-2.126672 -8.726678,-4.253343 -5.94002,-2.200006 -13.5667,-2.200006 -7.77335,0 -13.86003,2.49334 -6.01335,2.493339 -10.26669,6.966682 -4.18001,4.400011 -6.38002,10.193357 -2.2,5.793347 -2.2,12.320029 0,6.600015 2.2,12.466696 2.20001,5.793346 6.38002,10.266691 4.25334,4.40001 10.26669,6.89335 6.08668,2.49334 13.86003,2.49334 z"
       id="text1-2"
       style="font-weight:600;font-size:146.667px;font-family:'League Spartan';-inkscape-font-specification:'League Spartan Semi-Bold'"
       aria-label="C" />
    <path
       style="fill:#ffffff"
       d="m 63.613352,105.99013 -12.9047,13.96536 0.0884,0.97227 13.78858,-14.93763 z"
       id="path4-7" />
    <path
       style="fill:#ffffff"
       d="m 49.647992,92.11316 c 0,0 -10.34144,7.95495 -14.93763,13.25825 -4.5962,5.3033 -0.35356,-0.17677 -0.35356,-0.17677 l -1.06066,-0.97228 16.26346,-13.70019 z"
       id="path5-6" />
    <path
       style="fill:#ffffff"
       d="m 64.939172,106.52046 -13.25825,14.58408 -0.88388,-0.61872 13.43502,-14.58408 z"
       id="path6-1" />
  </g>
</svg>
